<?xml version="1.0" encoding="UTF-8"?>
<!DOCTYPE svg PUBLIC "-//W3C//DTD SVG 1.1//EN" "http://www.w3.org/Graphics/SVG/1.1/DTD/svg11.dtd">
<!-- Creator: CorelDRAW -->
<svg xmlns="http://www.w3.org/2000/svg" xml:space="preserve" width="2048px" height="2048px" style="shape-rendering:geometricPrecision; text-rendering:geometricPrecision; image-rendering:optimizeQuality; fill-rule:evenodd; clip-rule:evenodd"
viewBox="0 0 2048 2048"
 xmlns:xlink="http://www.w3.org/1999/xlink">
 <defs>
  <style type="text/css">
   <![CDATA[
    .fil2 {fill:none}
    .fil0 {fill:#fff;fill-rule:nonzero}
    .fil1 {fill:#742562;fill-rule:nonzero}
   ]]>
  </style>
 </defs>
 <g id="Layer_x0020_1">
  <metadata id="CorelCorpID_0Corel-Layer"/>
  <g id="_475104624">
   <path id="_475104288" class="fil0" d="M279.999 255.999l1488 0c13.2543,0 24,10.7457 24,24l0 1488c0,13.2543 -10.7457,24 -24,24l-1488 0c-13.2543,0 -24,-10.7457 -24,-24l0 -1488c0,-13.2543 10.7457,-24 24,-24zm1464 48l-1440 0 0 1440 1440 0 0 -1440z"/>
   <path id="_475104240" class="fil0" d="M259.374 1544.69c-6.67796,11.3906 -2.85827,26.041 8.53229,32.7189 11.3906,6.67796 26.041,2.85827 32.7189,-8.53229l296.789 -506.26 418.042 713.096c6.67796,11.3906 21.3284,15.2102 32.7189,8.53229 11.3906,-6.67796 15.2102,-21.3284 8.53229,-32.7189l-437.605 -746.467c-1.99134,-4.21181 -5.22756,-7.88977 -9.5504,-10.4232 -11.4343,-6.70276 -26.1402,-2.86772 -32.8429,8.56654l0.0779528 0.046063 -317.413 541.441z"/>
   <path id="_475104744" class="fil0" d="M837.533 1445.3c-6.67796,11.3906 -2.85827,26.041 8.53229,32.7189 11.3906,6.67796 26.041,2.85827 32.7189,-8.53229l441.974 -753.915 426.616 727.72c6.67796,11.3906 21.3284,15.2102 32.7189,8.53229 11.3906,-6.67796 15.2102,-21.3284 8.53229,-32.7189l-446.178 -761.091c-1.99134,-4.21181 -5.22756,-7.88977 -9.5504,-10.4232 -11.4343,-6.70276 -26.1402,-2.86772 -32.8429,8.56654l0.0779528 0.046063 -462.598 789.096z"/>
   <path id="_475104720" class="fil1" d="M946.347 458.274c48.7181,0 92.8276,19.7504 124.755,51.678 31.9288,31.9276 51.678,76.0382 51.678,124.756 0,48.7181 -19.7492,92.8276 -51.678,124.755 -31.9276,31.9276 -76.0371,51.678 -124.755,51.678 -48.7181,0 -92.8288,-19.7492 -124.756,-51.678 -31.9276,-31.9276 -51.678,-76.0371 -51.678,-124.755 0,-48.7193 19.7492,-92.8288 51.678,-124.756 31.9276,-31.9288 76.0371,-51.678 124.756,-51.678zm90.8174 85.6158c-23.2394,-23.2394 -55.35,-37.6158 -90.8174,-37.6158 -35.4685,0 -67.5792,14.3752 -90.8186,37.6158 -23.2406,23.2394 -37.6158,55.35 -37.6158,90.8186 0,35.4674 14.3764,67.578 37.6158,90.8174 23.2394,23.2406 55.3512,37.6158 90.8186,37.6158 35.4674,0 67.578,-14.3764 90.8174,-37.6158 23.2406,-23.2394 37.6158,-55.35 37.6158,-90.8174 0,-35.4674 -14.3752,-67.5792 -37.6158,-90.8186z"/>
  </g>
 </g>
 <rect class="fil2" width="2048" height="2048"/>
</svg>
