<?xml version="1.0" encoding="UTF-8"?>
<!DOCTYPE svg PUBLIC "-//W3C//DTD SVG 1.1//EN" "http://www.w3.org/Graphics/SVG/1.1/DTD/svg11.dtd">
<!-- Creator: CorelDRAW -->
<svg xmlns="http://www.w3.org/2000/svg" xml:space="preserve" width="2048px" height="2048px" style="shape-rendering:geometricPrecision; text-rendering:geometricPrecision; image-rendering:optimizeQuality; fill-rule:evenodd; clip-rule:evenodd"
viewBox="0 0 2048 2048"
 xmlns:xlink="http://www.w3.org/1999/xlink">
 <defs>
  <style type="text/css">
   <![CDATA[
    .fil3 {fill:none}
    .fil1 {fill:#fff}
    .fil0 {fill:#fff;fill-rule:nonzero}
    .fil2 {fill:#742562;fill-rule:nonzero}
   ]]>
  </style>
 </defs>
 <g id="Layer_x0020_1">
  <metadata id="CorelCorpID_0Corel-Layer"/>
  <path class="fil0" d="M279.999 448.001l1488 0c13.2543,0 24,10.7457 24,24l0 1104c0,13.2543 -10.7457,24 -24,24l-1488 0c-13.2543,0 -24,-10.7457 -24,-24l0 -1104c0,-13.2543 10.7457,-24 24,-24zm1464 48l-1440 0 0 1056 1440 0 0 -1056z"/>
  <path class="fil0" d="M279.999 732.239c-13.2543,0 -24,10.7457 -24,24 0,13.2543 10.7457,24 24,24l1488 0c13.2543,0 24,-10.7457 24,-24 0,-13.2543 -10.7457,-24 -24,-24l-1488 0z"/>
  <g id="_475139928">
   <circle id="_475103928" class="fil1" cx="448" cy="614.121" r="31.9996"/>
   <circle id="_475103808" class="fil1" cx="640.38" cy="614.121" r="31.9996"/>
   <circle id="_475104048" class="fil1" cx="832.76" cy="614.121" r="31.9996"/>
  </g>
  <g id="_475139304">
   <g>
    <path id="_475139832" class="fil2" d="M480 886.119l255.999 0c13.2543,0 24,10.7457 24,24l0 192c0,13.2543 -10.7457,24 -24,24l-255.999 0c-13.2543,0 -24,-10.7457 -24,-24l0 -192c0,-13.2543 10.7457,-24 24,-24zm231.999 48l-207.999 0 0 144 207.999 0 0 -144z"/>
    <path id="_475139904" class="fil2" d="M896 886.119l255.999 0c13.2543,0 24,10.7457 24,24l0 192c0,13.2543 -10.7457,24 -24,24l-255.999 0c-13.2543,0 -24,-10.7457 -24,-24l0 -192c0,-13.2543 10.7457,-24 24,-24zm231.999 48l-207.999 0 0 144 207.999 0 0 -144z"/>
    <path id="_475139568" class="fil2" d="M1312 886.119l255.999 0c13.2543,0 24,10.7457 24,24l0 192c0,13.2543 -10.7457,24 -24,24l-255.999 0c-13.2543,0 -24,-10.7457 -24,-24l0 -192c0,-13.2543 10.7457,-24 24,-24zm231.999 48l-207.999 0 0 144 207.999 0 0 -144z"/>
   </g>
   <g>
    <path id="_475139808" class="fil2" d="M480 1206.12l255.999 0c13.2543,0 24,10.7457 24,24l0 192c0,13.2543 -10.7457,24 -24,24l-255.999 0c-13.2543,0 -24,-10.7457 -24,-24l0 -192c0,-13.2543 10.7457,-24 24,-24zm231.999 48l-207.999 0 0 144 207.999 0 0 -144z"/>
    <path id="_475139616" class="fil2" d="M896 1206.12l255.999 0c13.2543,0 24,10.7457 24,24l0 192c0,13.2543 -10.7457,24 -24,24l-255.999 0c-13.2543,0 -24,-10.7457 -24,-24l0 -192c0,-13.2543 10.7457,-24 24,-24zm231.999 48l-207.999 0 0 144 207.999 0 0 -144z"/>
    <path id="_475139712" class="fil2" d="M1312 1206.12l255.999 0c13.2543,0 24,10.7457 24,24l0 192c0,13.2543 -10.7457,24 -24,24l-255.999 0c-13.2543,0 -24,-10.7457 -24,-24l0 -192c0,-13.2543 10.7457,-24 24,-24zm231.999 48l-207.999 0 0 144 207.999 0 0 -144z"/>
   </g>
  </g>
 </g>
 <rect class="fil3" width="2048" height="2048"/>
</svg>
