<?xml version="1.0" encoding="UTF-8"?>
<!DOCTYPE svg PUBLIC "-//W3C//DTD SVG 1.1//EN" "http://www.w3.org/Graphics/SVG/1.1/DTD/svg11.dtd">
<!-- Creator: CorelDRAW -->
<svg xmlns="http://www.w3.org/2000/svg" xml:space="preserve" width="2048px" height="2048px" style="shape-rendering:geometricPrecision; text-rendering:geometricPrecision; image-rendering:optimizeQuality; fill-rule:evenodd; clip-rule:evenodd"
viewBox="0 0 2048 2048"
 xmlns:xlink="http://www.w3.org/1999/xlink">
 <defs>
  <style type="text/css">
   <![CDATA[
    .fil2 {fill:none}
    .fil0 {fill:#ffffff;fill-rule:nonzero}
    .fil1 {fill:#742562;fill-rule:nonzero}
   ]]>
  </style>
 </defs>
 <g id="Layer_x0020_1">
  <metadata id="CorelCorpID_0Corel-Layer"/>
  <path class="fil0" d="M448.026 339.016l1147 0c53.5122,0 102.144,21.8752 137.385,57.1146 35.2406,35.2406 57.1146,83.8713 57.1146,137.384l0 0.00354331c0,53.5122 -21.874,102.143 -57.1146,137.384 -35.2406,35.2406 -83.8725,57.1158 -137.385,57.1158l-1147 0c-53.5122,0 -102.144,-21.8752 -137.384,-57.1158 -35.2406,-35.2394 -57.1158,-83.8713 -57.1158,-137.384l0 -0.00354331c0,-53.5122 21.8752,-102.143 57.1146,-137.384 35.2406,-35.2394 83.8725,-57.1146 137.385,-57.1146zm1147 48l-1147 0c-40.2614,0 -76.8827,16.4894 -103.447,43.0524 -26.563,26.5642 -43.0524,63.1843 -43.0524,103.446l0 0.00354331c0,40.2614 16.4894,76.8827 43.0536,103.446 26.563,26.5642 63.1843,43.0536 103.446,43.0536l1147 0c40.2614,0 76.8827,-16.4894 103.447,-43.0536 26.563,-26.563 43.0524,-63.1843 43.0524,-103.446l0 -0.00354331c0,-40.2614 -16.4894,-76.8827 -43.0524,-103.446 -26.5642,-26.563 -63.1855,-43.0524 -103.447,-43.0524z"/>
  <g id="_475128696">
   <polygon id="_475128360" class="fil0" points="539.387,461.515 987.388,461.515 987.388,509.515 539.387,509.515 "/>
   <polygon id="_475128552" class="fil0" points="539.387,557.516 987.388,557.516 987.388,605.516 539.387,605.516 "/>
  </g>
  <g id="_475128048">
   <path id="_475128456" class="fil0" d="M1220.72 454.553c21.8043,0 41.5441,8.8382 55.8331,23.1295 14.2913,14.289 23.1295,34.0288 23.1295,55.8331 0,21.802 -8.8382,41.5441 -23.1295,55.8331 -14.289,14.289 -34.0299,23.1295 -55.8331,23.1295 -21.802,0 -41.5441,-8.84056 -55.8331,-23.1295 -14.289,-14.289 -23.1295,-34.0311 -23.1295,-55.8331 0,-21.8032 8.84056,-41.5441 23.1295,-55.8331 14.289,-14.2913 34.0311,-23.1295 55.8331,-23.1295zm21.8953 57.0674c-5.60079,-5.60197 -13.3441,-9.06733 -21.8953,-9.06733 -8.55119,0 -16.2945,3.46536 -21.8953,9.06733 -5.60079,5.60079 -9.06733,13.3429 -9.06733,21.8953 0,8.55119 3.46654,16.2945 9.06733,21.8953 5.60079,5.60079 13.3441,9.06733 21.8953,9.06733 8.55237,0 16.2945,-3.46654 21.8953,-9.06733 5.60197,-5.60079 9.06733,-13.3441 9.06733,-21.8953 0,-8.55119 -3.46536,-16.2945 -9.06733,-21.8953z"/>
   <path id="_475128240" class="fil0" d="M1448.7 454.553c21.8043,0 41.5441,8.8382 55.8331,23.1295 14.2913,14.289 23.1295,34.0288 23.1295,55.8331 0,21.802 -8.8382,41.5441 -23.1295,55.8331 -14.289,14.289 -34.0299,23.1295 -55.8331,23.1295 -21.802,0 -41.5441,-8.84056 -55.8331,-23.1295 -14.289,-14.289 -23.1295,-34.0311 -23.1295,-55.8331 0,-21.8032 8.84056,-41.5441 23.1295,-55.8331 14.289,-14.2913 34.0311,-23.1295 55.8331,-23.1295zm21.8953 57.0674c-5.60079,-5.60197 -13.3441,-9.06733 -21.8953,-9.06733 -8.55119,0 -16.2945,3.46536 -21.8953,9.06733 -5.60079,5.60079 -9.06733,13.3429 -9.06733,21.8953 0,8.55119 3.46654,16.2945 9.06733,21.8953 5.60079,5.60079 13.3441,9.06733 21.8953,9.06733 8.55237,0 16.2945,-3.46654 21.8953,-9.06733 5.60197,-5.60079 9.06733,-13.3441 9.06733,-21.8953 0,-8.55119 -3.46536,-16.2945 -9.06733,-21.8953z"/>
  </g>
  <path class="fil0" d="M448.026 825.774l1147 0c53.5122,0 102.144,21.8752 137.385,57.1146 35.2406,35.2406 57.1146,83.8713 57.1146,137.384l0 0.00354331c0,47.6374 -17.3374,91.4068 -46.004,125.304l-34.1587 -34.1575c3.6437,-4.69607 7.6252,-9.99686 10.174,-14.2335 13.9276,-22.3949 21.9886,-48.7642 21.9886,-76.9134l0 -0.00354331c0,-40.2614 -16.4894,-76.8827 -43.0524,-103.446 -26.5642,-26.563 -63.1855,-43.0524 -103.447,-43.0524l-1147 0c-40.2614,0 -76.8827,16.4894 -103.447,43.0524 -26.563,26.5642 -43.0524,63.1843 -43.0524,103.446l0 0.00354331c0,40.2614 16.4894,76.8827 43.0536,103.446 26.563,26.5642 63.1843,43.0536 103.446,43.0536l740.882 0c-5.18386,16.3158 -1.36063,34.9158 11.3102,48l-752.193 0c-53.5122,0 -102.144,-21.8752 -137.384,-57.1158 -35.2406,-35.2394 -57.1158,-83.8713 -57.1158,-137.384l0 -0.00354331c0,-53.5122 21.8752,-102.143 57.1146,-137.384 35.2406,-35.2394 83.8725,-57.1146 137.385,-57.1146z"/>
  <polygon class="fil0" points="539.387,948.274 987.388,948.274 987.388,996.274 539.387,996.274 "/>
  <polygon class="fil0" points="539.387,1044.27 987.388,1044.27 987.388,1092.27 539.387,1092.27 "/>
  <path class="fil0" d="M1220.72 941.312c21.8043,0 41.5441,8.8382 55.8331,23.1295 14.2913,14.289 23.1295,34.0323 23.1295,55.8331 0,21.8043 -8.8382,41.5441 -23.1295,55.8331 -14.289,14.2913 -34.0288,23.1295 -55.8331,23.1295 -21.802,0 -41.5441,-8.8382 -55.8331,-23.1295 -14.289,-14.289 -23.1295,-34.0299 -23.1295,-55.8331 0,-21.802 8.84056,-41.5441 23.1295,-55.8331 14.289,-14.2913 34.0311,-23.1295 55.8331,-23.1295zm21.8953 57.0674c-5.60079,-5.60197 -13.3441,-9.06733 -21.8953,-9.06733 -8.55119,0 -16.2945,3.46536 -21.8953,9.06733 -5.60079,5.60079 -9.06733,13.3441 -9.06733,21.8953 0,8.55237 3.46654,16.2945 9.06733,21.8953 5.60079,5.60197 13.3441,9.06733 21.8953,9.06733 8.55119,0 16.2945,-3.46536 21.8953,-9.06733 5.60197,-5.60079 9.06733,-13.3441 9.06733,-21.8953 0,-8.55119 -3.46536,-16.2945 -9.06733,-21.8953z"/>
  <g id="_460820216">
   <path id="_460815752" class="fil1" d="M1536.81 1124.94c10.6134,2.81221 20.889,6.2941 30.7784,10.3937 10.1079,4.18937 19.8591,9.01772 29.204,14.4284l41.5146 -41.5146 -0.0011811 -0.0011811c9.37205,-9.37205 24.5681,-9.37205 33.9402,0l0.0862205 0.0885827 56.0977 56.0965 0.0011811 -0.00236221c9.37205,9.37205 9.37324,24.5693 0.0011811,33.9414l-0.133465 0.129921 -41.3835 41.3835c5.40827,9.34253 10.2331,19.0914 14.4213,29.1957 4.10079,9.89174 7.5815,20.1709 10.3961,30.7866l58.741 0c13.2543,0 24,10.7457 24,24l0 79.4587c0,13.2543 -10.7457,24 -24,24l-58.7386 0c-2.81339,10.6146 -6.29528,20.8914 -10.3949,30.7819 -4.18937,10.1055 -9.01418,19.8567 -14.4248,29.1992l41.5158 41.5158 0.0011811 -0.0011811c9.37205,9.37205 9.37205,24.5681 0,33.9402l-0.0885827 0.0862205 -56.0989 56.0977 -16.9689 -16.9689 16.9701 16.9713c-9.37205,9.37205 -24.5693,9.37087 -33.9414,-0.0011811l-0.129921 -0.133465 -41.3823 -41.3835c-9.34371,5.41063 -19.0949,10.2378 -29.2028,14.4272 -9.89056,4.09961 -20.1662,7.5815 -30.7796,10.3949l0 58.7374c0,13.2543 -10.7457,24 -24,24l-79.4587 0c-13.2543,0 -24,-10.7457 -24,-24l0 -58.7374c-10.6134,-2.81339 -20.8878,-6.29528 -30.7772,-10.3949 -10.1067,-4.18937 -19.8591,-9.01772 -29.204,-14.4284l-41.5158 41.517 0.00236221 0.0011811c-9.37205,9.37205 -24.5693,9.37324 -33.9414,0.0011811l-0.129921 -0.133465 -56.0528 -56.054 16.9689 -16.9689 -16.9713 16.9701c-9.37205,-9.37205 -9.37087,-24.5693 0.0011811,-33.9414l0.133465 -0.129921 41.3835 -41.3835c-5.40945,-9.34135 -10.2354,-19.0902 -14.4236,-29.1957 -4.10079,-9.89174 -7.58386,-20.1697 -10.3973,-30.7855l-58.7386 0c-13.2543,0 -24,-10.7457 -24,-24l0 -79.4587c0,-13.2543 10.7457,-24 24,-24l58.7374 0c2.81339,-10.6134 6.2941,-20.889 10.3937,-30.7772 4.19055,-10.1067 9.01772,-19.8591 14.4295,-29.204l-41.517 -41.5158 -0.0011811 0.00236221c-9.37205,-9.37205 -9.37324,-24.5693 -0.0011811,-33.9414l0.133465 -0.129921 56.0528 -56.0528 -0.0011811 -0.0011811c9.37205,-9.37205 24.5681,-9.37205 33.9402,0l0.0862205 0.0885827 41.426 41.426c9.34253,-5.41063 19.0937,-10.2366 29.1992,-14.4248 9.89174,-4.10079 20.1697,-7.58386 30.7843,-10.3961l0 -58.7363c0,-13.2543 10.7457,-24 24,-24l79.4587 0c13.2543,0 24,10.7457 24,24l0 58.7363zm12.4028 54.6449c-12.4429,-5.15788 -25.3843,-9.07914 -38.6611,-11.6091 -12.1949,-1.13858 -21.7417,-11.4012 -21.7417,-23.8937l0 -53.8784 -31.4587 0 0 53.6209c0.137008,11.511 -8.04686,21.7736 -19.7528,23.8784l-4.24725 -23.6209 4.2189 23.5311c-13.9654,2.51103 -27.5693,6.55985 -40.6276,11.974 -12.8575,5.32914 -25.0843,12.0118 -36.5067,19.8697 -9.40394,7.11969 -22.8567,6.39331 -31.4327,-2.18268l0.0011811 -0.0011811 -38.1189 -38.1189 -22.2461 22.2461 37.7764 37.774c8.37993,8.02678 9.91654,21.1772 3.08622,31.0075l-19.7103 -13.6937 19.6878 13.6878c-8.09056,11.6457 -14.9563,24.1382 -20.4083,37.2886 -5.1567,12.4417 -9.07796,25.3831 -11.6079,38.6599 -1.13858,12.1949 -11.4012,21.7417 -23.8937,21.7417l-53.8808 0 0 31.4587 53.5784 0c11.5287,-0.158268 21.815,8.03032 23.9232,19.7504l-23.6209 4.24961 23.5311 -4.2189c2.51103,13.9642 6.56103,27.5705 11.9752,40.6288 5.32796,12.8551 12.0071,25.0819 19.8614,36.4973 7.1256,9.40513 6.40158,22.8614 -2.17677,31.4398l-0.0011811 -0.0011811 -38.1201 38.1201 22.2461 22.2473 37.8177 -37.8189c8.0315,-8.34095 21.1536,-9.86103 30.9662,-3.04252l-13.6949 19.7091 13.6878 -19.6878c11.6445,8.09056 24.1358,14.9563 37.2874,20.4071 12.4441,5.15906 25.3866,9.08032 38.6622,11.6102 12.1937,1.13976 21.7394,11.4012 21.7394,23.8937l0 53.8796 31.4587 0 0 -53.6221c-0.137008,-11.511 8.04686,-21.7736 19.7528,-23.8784l4.24725 23.6209 -4.2189 -23.5311c13.963,-2.50984 27.5658,-6.55985 40.6229,-11.9728 12.8539,-5.32678 25.0748,-12.0059 36.4925,-19.8579 9.40631,-7.13386 22.8709,-6.41221 31.4528,2.16969l-0.00236221 0.0011811 38.1189 38.1201 22.2484 -22.2473 -37.8177 -37.8177c-8.34095,-8.03032 -9.86103,-21.1536 -3.04252,-30.9662l19.7091 13.6949 -19.6878 -13.6878c8.08938,-11.6421 14.9528,-24.1323 20.4036,-37.2827 5.16142,-12.4488 9.08032,-25.3949 11.6114,-38.6764 1.14331,-12.1902 11.4036,-21.7299 23.8925,-21.7299l53.8808 0 0 -31.4587 -53.5784 0c-11.5287,0.158268 -21.8162,-8.03032 -23.9244,-19.7504l23.6209 -4.24961 -23.5311 4.2189c-2.51221,-13.9654 -6.56221,-27.5717 -11.9752,-40.63 -5.32914,-12.8575 -12.0083,-25.0843 -19.865,-36.5044 -7.11969,-9.40394 -6.39331,-22.8567 2.18268,-31.4327l0.0011811 0.0011811 38.1189 -38.1189 -22.2473 -22.2461 -37.8166 37.8177c-8.03032,8.34095 -21.1536,9.85985 -30.9662,3.04134l13.6949 -19.7091 -13.6878 19.6878c-11.6433,-8.09056 -24.1358,-14.9563 -37.2874,-20.4071z"/>
   <path id="_460795064" class="fil1" d="M1473.08 1207.42c43.1233,0 82.1682,17.4827 110.431,45.7441 28.2614,28.2614 45.7441,67.3064 45.7441,110.431 0,43.1221 -17.4827,82.167 -45.7441,110.428 -28.2626,28.2614 -67.3075,45.7441 -110.431,45.7441 -43.1233,0 -82.1682,-17.4827 -110.43,-45.7441 -28.2614,-28.2614 -45.7441,-67.3052 -45.7441,-110.428 0,-43.1244 17.4827,-82.1694 45.7441,-110.431 28.2614,-28.2614 67.3064,-45.7441 110.43,-45.7441zm76.493 79.682c-19.5744,-19.5732 -46.6205,-31.6819 -76.493,-31.6819 -29.8725,0 -56.9185,12.1087 -76.4918,31.6819 -19.5732,19.5732 -31.6819,46.6193 -31.6819,76.493 0,29.8725 12.1087,56.9174 31.6819,76.4906 19.5732,19.5732 46.6193,31.6819 76.4918,31.6819 29.8725,0 56.9185,-12.1087 76.493,-31.6819 19.5732,-19.5732 31.6819,-46.6193 31.6819,-76.4906 0,-29.8736 -12.1087,-56.9197 -31.6819,-76.493z"/>
  </g>
 </g>
 <rect class="fil2" width="2048" height="2048"/>
</svg>
