<?xml version="1.0" encoding="UTF-8"?>
<!DOCTYPE svg PUBLIC "-//W3C//DTD SVG 1.1//EN" "http://www.w3.org/Graphics/SVG/1.1/DTD/svg11.dtd">
<!-- Creator: CorelDRAW -->
<svg xmlns="http://www.w3.org/2000/svg" xml:space="preserve" width="2048px" height="2048px" style="shape-rendering:geometricPrecision; text-rendering:geometricPrecision; image-rendering:optimizeQuality; fill-rule:evenodd; clip-rule:evenodd"
viewBox="0 0 2048 2048"
 xmlns:xlink="http://www.w3.org/1999/xlink">
 <defs>
  <style type="text/css">
   <![CDATA[
    .fil3 {fill:none}
    .fil2 {fill:#742562}
    .fil0 {fill:#fff;fill-rule:nonzero}
    .fil1 {fill:#742562;fill-rule:nonzero}
   ]]>
  </style>
 </defs>
 <g id="Layer_x0020_1">
  <metadata id="CorelCorpID_0Corel-Layer"/>
  <path class="fil0" d="M279.999 483.384l1488 0c13.2543,0 24,10.7457 24,24l0 839.385c0,13.2543 -10.7457,24 -24,24l-1488 0c-13.2543,0 -24,-10.7457 -24,-24l0 -839.385c0,-13.2543 10.7457,-24 24,-24zm1464 48l-1440 0 0 791.385 1440 0 0 -791.385z"/>
  <g id="_460814192">
   <path id="_460814432" class="fil0" d="M876.308 1346.77c0,-13.2543 -10.7457,-24 -24,-24 -13.2543,0 -24,10.7457 -24,24l0 193.845c0,13.2543 10.7457,24 24,24 13.2543,0 24,-10.7457 24,-24l0 -193.845z"/>
   <path id="_460814456" class="fil0" d="M1171.69 1540.61c0,13.2543 10.7457,24 24,24 13.2543,0 24,-10.7457 24,-24l0 -193.845c0,-13.2543 -10.7457,-24 -24,-24 -13.2543,0 -24,10.7457 -24,24l0 193.845z"/>
  </g>
  <polygon class="fil0" points="702.086,1516.61 1345.92,1516.61 1345.92,1564.61 702.086,1564.61 "/>
  <polygon class="fil1" points="1140,659.143 1620,659.143 1620,707.143 1140,707.143 "/>
  <polygon class="fil1" points="1140,1000.43 1620,1000.43 1620,1048.43 1140,1048.43 "/>
  <polygon class="fil1" points="1140,1171.07 1620,1171.07 1620,1219.07 1140,1219.07 "/>
  <g id="_460812944">
   <path id="_460813976" class="fil1" d="M411.651 1174.77l140.002 -213.98 36.7051 24.0142 28.1126 -34.3583 91.6182 74.9611 53.9185 -143.784 44.8134 16.6866 -57.7016 153.872 -37.6725 -14.028 -25.4752 31.1351 -96.4005 -78.8741 -137.796 210.607 -40.1244 -26.2512zm382.08 -339.027l64.0229 -56.0197 31.5 36 -64.0229 56.0197 -31.5 -36zm105.273 -83.9446l51.3225 -29.3882 23.8134 41.6244 -51.3225 29.3882 -23.8134 -41.6244z"/>
   <ellipse id="_460813688" class="fil2" cx="584.001" cy="968" rx="39.9994" ry="39.9993"/>
   <ellipse id="_460813544" class="fil2" cx="717.444" cy="1055.35" rx="39.9994" ry="39.9993"/>
   <ellipse id="_460813520" class="fil2" cx="792.39" cy="868.701" rx="39.9994" ry="39.9993"/>
   <ellipse id="_460813592" class="fil2" cx="890.595" cy="782.773" rx="40.0006" ry="40.0005"/>
   <g>
    <polygon id="_460813328" class="fil1" points="425.465,693.221 494.005,693.221 494.005,741.221 425.465,741.221 "/>
    <polygon id="_460813664" class="fil1" points="425.465,795.48 494.005,795.48 494.005,843.48 425.465,843.48 "/>
    <polygon id="_460813280" class="fil1" points="425.465,897.738 494.005,897.738 494.005,945.738 425.465,945.738 "/>
    <polygon id="_460813400" class="fil1" points="425.465,999.996 494.005,999.996 494.005,1048 425.465,1048 "/>
   </g>
   <polygon id="_460812584" class="fil1" points="961.465,1219.08 425.465,1219.08 401.559,1219.08 401.559,1195.08 401.56,659.078 449.373,659.078 449.372,1171.08 961.465,1171.08 "/>
   <g>
    <polygon id="_460813136" class="fil1" points="539.484,1195.08 539.484,1126.54 587.484,1126.54 587.484,1195.08 "/>
    <polygon id="_460812872" class="fil1" points="641.743,1195.08 641.743,1126.54 689.743,1126.54 689.743,1195.08 "/>
    <polygon id="_460812752" class="fil1" points="744.001,1195.08 744.001,1126.54 792.001,1126.54 792.001,1195.08 "/>
    <polygon id="_460813016" class="fil1" points="846.259,1195.08 846.259,1126.54 894.259,1126.54 894.259,1195.08 "/>
   </g>
  </g>
  <polygon class="fil1" points="1140,829.788 1620,829.788 1620,877.788 1140,877.788 "/>
 </g>
 <rect class="fil3" width="2048" height="2048"/>
</svg>
