<?xml version="1.0" encoding="UTF-8"?>
<!DOCTYPE svg PUBLIC "-//W3C//DTD SVG 1.1//EN" "http://www.w3.org/Graphics/SVG/1.1/DTD/svg11.dtd">
<!-- Creator: CorelDRAW -->
<svg xmlns="http://www.w3.org/2000/svg" xml:space="preserve" width="2048px" height="2048px" style="shape-rendering:geometricPrecision; text-rendering:geometricPrecision; image-rendering:optimizeQuality; fill-rule:evenodd; clip-rule:evenodd"
viewBox="0 0 2048 2048"
 xmlns:xlink="http://www.w3.org/1999/xlink">
 <defs>
  <style type="text/css">
   <![CDATA[
    .fil2 {fill:none}
    .fil1 {fill:#ffffff;fill-rule:nonzero}
    .fil0 {fill:#742562;fill-rule:nonzero}
   ]]>
  </style>
 </defs>
 <g id="Layer_x0020_1">
  <metadata id="CorelCorpID_0Corel-Layer"/>
  <g id="_460807352">
   <path id="_460807664" class="fil0" d="M326.841 1657.57l338.039 -516.661 40.1244 26.2512 -361.708 552.837 -16.4551 0 0 -62.4272zm455.372 -535.722l277.271 226.859 -30.3756 37.1244 -277.271 -226.859 30.3756 -37.1244zm310.614 217.957l160.187 -427.166 44.8134 16.6866 -160.187 427.166 -44.8134 -16.6866zm236.432 -537.383l177.735 -155.517 31.5 36 -177.735 155.517 -31.5 -36zm285.423 -228.045l142.475 -81.5883 23.8134 41.6244 -142.475 81.5883 -23.8134 -41.6244z"/>
   <path id="_460807256" class="fil0" d="M718.229 1013.44c24.0331,0 45.7961,9.74528 61.5497,25.4965 15.7512,15.7536 25.4965,37.5166 25.4965,61.5497 0,24.0343 -9.74528,45.7973 -25.4965,61.5485 -15.7536,15.7536 -37.5154,25.4965 -61.5497,25.4965 -24.0343,0 -45.7961,-9.74292 -61.5497,-25.4965 -15.7512,-15.7512 -25.4965,-37.5142 -25.4965,-61.5485 0,-24.0343 9.74292,-45.7961 25.4965,-61.5497 15.7536,-15.7512 37.5142,-25.4965 61.5497,-25.4965zm27.6118 59.4343c-7.06418,-7.06418 -16.8284,-11.4343 -27.6118,-11.4343 -10.7847,0 -20.5477,4.37008 -27.6118,11.4343 -7.06418,7.06418 -11.4343,16.8284 -11.4343,27.6118 0,10.7835 4.37126,20.5477 11.4343,27.6107 7.06418,7.06418 16.8284,11.4343 27.6118,11.4343 10.7835,0 20.5477,-4.37008 27.6118,-11.4343 7.063,-7.063 11.4343,-16.8272 11.4343,-27.6107 0,-10.7835 -4.37008,-20.5477 -11.4343,-27.6118z"/>
   <path id="_460807784" class="fil0" d="M1093.09 1320.15c24.0343,0 45.7973,9.74528 61.5485,25.4965 15.7536,15.7536 25.4965,37.5154 25.4965,61.5497 0,24.0343 -9.7441,45.7973 -25.4965,61.5485 -15.7512,15.7524 -37.5142,25.4965 -61.5485,25.4965 -24.0355,0 -45.7961,-9.74292 -61.5497,-25.4965 -15.7524,-15.7512 -25.4965,-37.5142 -25.4965,-61.5485 0,-24.0331 9.74528,-45.7961 25.4965,-61.5497 15.7536,-15.7512 37.5166,-25.4965 61.5497,-25.4965zm27.6107 59.4343c-7.063,-7.063 -16.8272,-11.4343 -27.6107,-11.4343 -10.7835,0 -20.5477,4.37008 -27.6118,11.4343 -7.06418,7.06418 -11.4343,16.8284 -11.4343,27.6118 0,10.7835 4.37008,20.5477 11.4343,27.6107 7.06418,7.06418 16.8272,11.4343 27.6118,11.4343 10.7835,0 20.5477,-4.37008 27.6107,-11.4343 7.06418,-7.063 11.4343,-16.8272 11.4343,-27.6107 0,-10.7835 -4.37008,-20.5477 -11.4343,-27.6118z"/>
   <path id="_460807208" class="fil0" d="M1297.56 774.892c24.0343,0 45.7973,9.74528 61.5485,25.4965 15.7536,15.7536 25.4965,37.5154 25.4965,61.5497 0,24.0343 -9.74292,45.7973 -25.4965,61.5485 -15.7512,15.7524 -37.5142,25.4965 -61.5485,25.4965 -24.0355,0 -45.7961,-9.74292 -61.5497,-25.4965 -15.7536,-15.7512 -25.4965,-37.5142 -25.4965,-61.5485 0,-24.0355 9.74528,-45.7961 25.4965,-61.5497 15.7536,-15.7536 37.5154,-25.4965 61.5497,-25.4965zm27.6107 59.4343c-7.063,-7.063 -16.8272,-11.4343 -27.6107,-11.4343 -10.7835,0 -20.5477,4.37008 -27.6118,11.4343 -7.06418,7.06418 -11.4343,16.8272 -11.4343,27.6118 0,10.7847 4.37008,20.5477 11.4343,27.6107 7.06418,7.06418 16.8272,11.4343 27.6118,11.4343 10.7835,0 20.5477,-4.37008 27.6107,-11.4343 7.06418,-7.063 11.4343,-16.826 11.4343,-27.6107 0,-10.7835 -4.37008,-20.5477 -11.4343,-27.6118z"/>
   <path id="_460807160" class="fil0" d="M1570.19 536.344c24.0355,0 45.7961,9.74292 61.5497,25.4965 15.7536,15.7536 25.4965,37.5142 25.4965,61.5497 0,24.0343 -9.74292,45.7973 -25.4965,61.5485 -15.7536,15.7536 -37.5142,25.4965 -61.5497,25.4965 -24.0343,0 -45.7973,-9.74292 -61.5485,-25.4965 -15.7536,-15.7512 -25.4965,-37.5142 -25.4965,-61.5485 0,-24.0355 9.74292,-45.7961 25.4965,-61.5497 15.7512,-15.7536 37.5142,-25.4965 61.5485,-25.4965zm27.6118 59.4343c-7.06418,-7.06418 -16.8272,-11.4343 -27.6118,-11.4343 -10.7847,0 -20.5477,4.37008 -27.6107,11.4343 -7.06418,7.06418 -11.4343,16.8272 -11.4343,27.6118 0,10.7847 4.37008,20.5477 11.4343,27.6107 7.063,7.06418 16.826,11.4343 27.6107,11.4343 10.7847,0 20.5477,-4.37008 27.6118,-11.4343 7.06418,-7.063 11.4343,-16.826 11.4343,-27.6107 0,-10.7847 -4.37008,-20.5477 -11.4343,-27.6118z"/>
  </g>
  <polygon class="fil1" points="278.935,343.801 369.464,343.801 369.464,391.801 278.935,391.801 "/>
  <polygon class="fil1" points="278.935,684.585 369.464,684.585 369.464,732.585 278.935,732.585 "/>
  <polygon class="fil1" points="278.935,1025.37 369.464,1025.37 369.464,1073.37 278.935,1073.37 "/>
  <polygon class="fil1" points="278.935,1366.15 369.464,1366.15 369.464,1414.15 278.935,1414.15 "/>
  <polygon class="fil1" points="643.111,1768 643.111,1677.47 691.111,1677.47 691.111,1768 "/>
  <polygon class="fil1" points="983.894,1768 983.894,1677.47 1031.89,1677.47 1031.89,1768 "/>
  <polygon class="fil1" points="1324.68,1768 1324.68,1677.47 1372.68,1677.47 1372.68,1768 "/>
  <polygon class="fil1" points="1665.46,1768 1665.46,1677.47 1713.46,1677.47 1713.46,1768 "/>
  <polygon class="fil1" points="1766.94,1792 278.935,1792 255.029,1792 255.029,1768 255.031,279.999 302.844,279.999 302.842,1744 1766.94,1744 "/>
 </g>
 <rect class="fil2" width="2048" height="2048"/>
</svg>
